<svg width="24" height="25" viewBox="0 0 24 25" fill="none" xmlns="http://www.w3.org/2000/svg">
<path d="M8.03693 2.02435C7.48493 2.02435 7.03693 2.47462 7.03693 3.02941C4.82593 3.02941 3.00592 4.83147 3.00592 7.04963V9.05974L3.03693 17.1002C3.03693 19.3173 4.82793 21.1204 7.03693 21.1204H17.0369C19.2459 21.1204 21.0369 19.3203 21.0369 17.1002L21.0059 9.05974V7.04963C21.0059 4.82745 19.2439 3.02941 17.0369 3.02941C17.0369 2.47462 16.5899 2.02435 16.0369 2.02435C15.4849 2.02435 15.0369 2.47462 15.0369 3.02941H9.03693C9.03693 2.47462 8.58993 2.02435 8.03693 2.02435ZM7.03693 5.03952C7.03693 5.59431 7.48493 6.04457 8.03693 6.04457C8.58993 6.04457 9.03693 5.59431 9.03693 5.03952H15.0369C15.0369 5.59431 15.4849 6.04457 16.0369 6.04457C16.5899 6.04457 17.0369 5.59431 17.0369 5.03952C18.1339 5.03952 19.0059 5.93201 19.0059 7.04963V8.05468C17.0819 8.05468 6.92992 8.05468 5.00592 8.05468V7.04963C5.00592 5.94708 5.92493 5.03952 7.03693 5.03952ZM5.00592 10.0648C6.92992 10.0648 17.0819 10.0648 19.0059 10.0648L19.0369 17.1002C19.0369 18.2067 18.1419 19.1103 17.0369 19.1103H7.03693C5.93293 19.1103 5.03693 18.2108 5.03693 17.1002L5.00592 10.0648Z" fill="#2A343D"/>
</svg>
