<svg width="20" height="20" viewBox="0 0 20 20" fill="none" xmlns="http://www.w3.org/2000/svg">
<path d="M8 0C3.5817 0 0.0001 3.582 0 8C0 12.418 3.5817 16 8 16C9.8367 16 11.5604 15.351 12.9108 14.31L17.2812 18.719C17.6718 19.109 18.3282 19.109 18.7188 18.719C19.1093 18.328 19.1093 17.672 18.7188 17.281L14.3128 12.905C15.3536 11.555 16 9.83701 16 8C16 3.582 12.4183 0 8 0ZM8 2C11.3137 2 13.9999 4.686 14 8C14 11.314 11.3137 14 8 14C4.6863 14 2.0001 11.314 2 8C2 4.686 4.6863 2 8 2Z" fill="#2A343D"/>
</svg>
