<svg width="24" height="24" viewBox="0 0 24 24" fill="none" xmlns="http://www.w3.org/2000/svg">
<path fill-rule="evenodd" clip-rule="evenodd" d="M12 3C10.3431 3 9 4.34315 9 6C9 7.65685 10.3431 9 12 9C13.6569 9 15 7.65685 15 6C15 4.34315 13.6569 3 12 3ZM7 6C7 3.23858 9.23858 1 12 1C14.7614 1 17 3.23858 17 6C17 8.76142 14.7614 11 12 11C9.23858 11 7 8.76142 7 6ZM5.77844 14.15C7.77388 13.2555 10.184 13 12 13C13.816 13 16.2261 13.2555 18.2216 14.15C20.2529 15.0606 22 16.722 22 19.5V20.5C22 21.8546 20.9048 23 19.5183 23H4.48169C3.09519 23 2 21.8546 2 20.5V19.5C2 16.722 3.74705 15.0606 5.77844 14.15ZM6.59656 15.975C5.00295 16.6894 4 17.778 4 19.5V20.5C4 20.7821 4.23155 21 4.48169 21H19.5183C19.7684 21 20 20.7821 20 20.5V19.5C20 17.778 18.9971 16.6894 17.4034 15.975C15.7739 15.2445 13.684 15 12 15C10.316 15 8.22612 15.2445 6.59656 15.975Z" fill="black"/>
</svg>
