<svg width="59" height="59" viewBox="0 0 59 59" fill="none" xmlns="http://www.w3.org/2000/svg">
<path d="M49.1667 17.8333C49.1667 14.0621 49.1667 12.1765 47.9951 11.0049C46.8235 9.83333 44.9379 9.83333 41.1667 9.83333H17.8333C14.0621 9.83333 12.1765 9.83333 11.0049 11.0049C9.83334 12.1765 9.83334 14.0621 9.83334 17.8333V41.1667C9.83334 44.9379 9.83334 46.8235 11.0049 47.9951C12.1765 49.1667 14.0621 49.1667 17.8333 49.1667H41.1667C44.9379 49.1667 46.8235 49.1667 47.9951 47.9951C49.1667 46.8235 49.1667 44.9379 49.1667 41.1667V17.8333Z" stroke="black" stroke-width="3"/>
<path d="M22.125 29.5L36.875 29.5" stroke="black" stroke-width="3" stroke-linecap="round" stroke-linejoin="round"/>
<path d="M29.5 22.125L29.5 36.875" stroke="black" stroke-width="3" stroke-linecap="round" stroke-linejoin="round"/>
</svg>
