<svg width="27" height="27" viewBox="0 0 27 27" fill="none" xmlns="http://www.w3.org/2000/svg">
<path d="M1.5 6.08823H5.4452" stroke="black" stroke-width="3" stroke-linecap="round" stroke-linejoin="round"/>
<path d="M1.5 20.9118H9.71917" stroke="black" stroke-width="3" stroke-linecap="round" stroke-linejoin="round"/>
<path d="M21.5547 20.9118H25.4999" stroke="black" stroke-width="3" stroke-linecap="round" stroke-linejoin="round"/>
<path d="M17.2808 6.08823H25.5" stroke="black" stroke-width="3" stroke-linecap="round" stroke-linejoin="round"/>
<path d="M5.44516 6.08824C5.44516 4.66301 5.44516 3.95039 5.64537 3.38826C5.91231 2.63877 6.42433 2.04329 7.06878 1.73284C7.55213 1.5 8.16488 1.5 9.39036 1.5C10.6158 1.5 11.2286 1.5 11.712 1.73284C12.3564 2.04329 12.8684 2.63877 13.1354 3.38826C13.3356 3.95039 13.3356 4.66301 13.3356 6.08824C13.3356 7.51346 13.3356 8.22608 13.1354 8.78821C12.8684 9.5377 12.3564 10.1332 11.712 10.4436C11.2286 10.6765 10.6158 10.6765 9.39036 10.6765C8.16488 10.6765 7.55213 10.6765 7.06878 10.4436C6.42433 10.1332 5.91231 9.5377 5.64537 8.78821C5.44516 8.22608 5.44516 7.51346 5.44516 6.08824Z" stroke="black" stroke-width="3"/>
<path d="M13.6643 20.9118C13.6643 19.4865 13.6643 18.7739 13.8645 18.2117C14.1314 17.4623 14.6435 16.8668 15.2879 16.5563C15.7713 16.3235 16.384 16.3235 17.6095 16.3235C18.835 16.3235 19.4477 16.3235 19.9311 16.5563C20.5755 16.8668 21.0876 17.4623 21.3546 18.2117C21.5547 18.7739 21.5547 19.4865 21.5547 20.9118C21.5547 22.337 21.5547 23.0496 21.3546 23.6118C21.0876 24.3612 20.5755 24.9567 19.9311 25.2672C19.4477 25.5 18.835 25.5 17.6095 25.5C16.384 25.5 15.7713 25.5 15.2879 25.2672C14.6435 24.9567 14.1314 24.3612 13.8645 23.6118C13.6643 23.0496 13.6643 22.337 13.6643 20.9118Z" stroke="black" stroke-width="3"/>
</svg>
