<svg width="244" height="42" viewBox="0 0 244 42" fill="none" xmlns="http://www.w3.org/2000/svg">
<rect y="17" width="12" height="11" fill="#E30A0B"/>
<rect x="12" y="28" width="11" height="12" fill="#E30A0B"/>
<rect x="12" y="5" width="11" height="12" fill="#E30A0B"/>
<rect x="23" y="17" width="12" height="11" fill="#E30A0B"/>
<rect x="12" y="17" width="11" height="11" fill="#E30A0B"/>
<path d="M49.408 41V8.648H68.128V13.496H55.312V22.424H67.216V27.224H55.312V41H49.408ZM73.8299 41V9.128C76.0859 8.696 79.3499 8.408 82.7579 8.408C87.4139 8.408 90.5339 9.176 92.7419 11C94.5179 12.488 95.5259 14.744 95.5259 17.528C95.5259 21.704 92.6939 24.536 89.6219 25.592V25.736C91.9739 26.6 93.3659 28.856 94.1339 31.976C95.1899 36.008 96.0539 39.752 96.6779 41H90.6299C90.1499 40.04 89.3339 37.4 88.4699 33.368C87.5099 29.144 86.0219 27.8 82.6619 27.704H79.6859V41H73.8299ZM79.6859 13.16V23.384H83.1899C87.1739 23.384 89.6219 21.272 89.6219 18.056C89.6219 14.552 87.1739 12.872 83.3339 12.872C81.4619 12.872 80.2619 13.016 79.6859 13.16ZM101.158 8.648H107.062V41H101.158V8.648ZM127.974 41H121.206L110.742 8.648H117.174L121.59 23.384C122.838 27.464 123.942 31.208 124.758 35.144H124.854C125.718 31.304 126.918 27.368 128.166 23.432L132.87 8.648H139.158L127.974 41ZM142.642 8.648H148.546V41H142.642V8.648ZM155.299 41V8.648H161.203V36.056H174.499V41H155.299ZM178.971 41V8.648H184.875V36.056H198.171V41H178.971ZM202.642 8.648H208.546V41H202.642V8.648ZM241.219 23.144V39.512C239.155 40.28 235.123 41.336 230.851 41.336C225.379 41.336 221.203 39.944 218.131 37.016C215.251 34.28 213.619 30.008 213.619 25.112C213.667 14.84 220.915 8.312 231.619 8.312C235.603 8.312 238.723 9.128 240.211 9.848L238.915 14.6C237.139 13.784 234.979 13.208 231.571 13.208C224.659 13.208 219.811 17.288 219.811 24.824C219.811 32.168 224.323 36.536 231.043 36.536C233.203 36.536 234.739 36.248 235.507 35.912V27.8H229.795V23.144H241.219Z" fill="black"/>
</svg>
