<svg width="259" height="44" viewBox="0 0 259 44" fill="none" xmlns="http://www.w3.org/2000/svg">
<rect y="21" width="12" height="11" fill="#E30A0B"/>
<rect x="12" y="32" width="11" height="12" fill="#E30A0B"/>
<rect x="12" y="9" width="11" height="12" fill="#E30A0B"/>
<rect x="23" y="21" width="12" height="11" fill="#E30A0B"/>
<rect x="12" y="21" width="11" height="11" fill="#E30A0B"/>
<path d="M46.216 41V8.648H65.944V14.648H53.512V22.04H65.128V27.992H53.512V41H46.216ZM71.4805 41V9.08C73.8325 8.696 77.2885 8.408 81.2245 8.408C86.0245 8.408 89.3845 9.128 91.6885 10.952C93.6565 12.488 94.7125 14.792 94.7125 17.768C94.7125 21.848 91.7845 24.68 89.0005 25.688V25.832C91.2565 26.744 92.5045 28.856 93.3205 31.832C94.3285 35.528 95.2885 39.752 95.9125 41H88.4245C87.9445 40.04 87.1285 37.448 86.2165 33.464C85.3045 29.384 83.9125 28.328 80.8885 28.28H78.7285V41H71.4805ZM78.7285 14.12V23H81.6085C85.2565 23 87.4165 21.176 87.4165 18.344C87.4165 15.416 85.4005 13.88 82.0405 13.88C80.2645 13.88 79.2565 13.976 78.7285 14.12ZM99.9816 8.648H107.278V41H99.9816V8.648ZM129.797 41H121.253L110.885 8.648H118.901L122.837 22.328C123.941 26.216 124.949 29.864 125.717 33.896H125.861C126.677 30.008 127.685 26.168 128.789 22.472L132.917 8.648H140.693L129.797 41ZM144.185 8.648H151.481V41H144.185V8.648ZM157.872 41V8.648H165.168V34.856H178.032V41H157.872ZM182.388 41V8.648H189.684V34.856H202.548V41H182.388ZM206.904 8.648H214.2V41H206.904V8.648ZM247.567 22.472V39.512C245.311 40.28 241.039 41.336 236.767 41.336C230.863 41.336 226.591 39.848 223.615 37.016C220.687 34.184 219.055 29.96 219.055 25.208C219.103 14.456 226.927 8.312 237.535 8.312C241.711 8.312 244.927 9.128 246.511 9.848L244.975 15.752C243.199 14.936 241.039 14.36 237.487 14.36C231.391 14.36 226.735 17.768 226.735 24.824C226.735 31.544 230.959 35.432 236.959 35.432C238.591 35.432 239.935 35.24 240.511 35V28.184H235.519V22.472H247.567Z" fill="#FDFDFD"/>
</svg>
